<svg xmlns="http://www.w3.org/2000/svg" viewBox="0 0 16.9 16.25"><defs><style>.cls-1{fill:#8c4a8b;}.cls-2{fill:#71336f;}.cls-3{fill:#fff;}.cls-4,.cls-9{fill:#edd9b0;}.cls-5{fill:#553b22;}.cls-6{fill:#c9b893;}.cls-7,.cls-8{fill:#d8ab65;}.cls-8{opacity:0.85;}.cls-9{opacity:0.8;}</style></defs><title>Asset 1</title><g id="Layer_2" data-name="Layer 2"><g id="Bees"><path class="cls-1" d="M11.7,6.12c-.72.38-1.43.71-2.09,1.14s-.7.5-.37,1.27c.22.52.41,1.06.62,1.61C11,8.93,12,7.62,13.88,7.43c-.14-.12-.24-.23-.36-.32l-.83-.59c-.17-.11-.31-.23-.55-.09S11.79,6.38,11.7,6.12Z"/><path class="cls-1" d="M6.78,6.21,4.88,8.34c.56.15,1.06.29,1.56.4.06,0,.17-.05.22-.11l1.2-1.39Z"/><path class="cls-1" d="M10.91,5.54l-.79-.13L10,5.36c-.23-.1-.46-.22-.69-.31s-.33-.14-.42.1a.12.12,0,0,1-.1,0c-.61,0-1,.47-1.49.67l1.1,1a4.4,4.4,0,0,1,2.57-1.21Z"/><path class="cls-1" d="M5.74,5.81c-.62-.35-1.08-.25-1.71.36A1.4,1.4,0,0,0,3.81,7.9Z"/><path class="cls-1" d="M9.58,10.53,8.52,8.23l-.83,1c.35.25.68.46,1,.7A1.46,1.46,0,0,1,9.27,11Z"/><path class="cls-1" d="M8.81,12.91c.42-1.5,1.64-2.44,2.89-3.35.48-.35.31-1.25.75-1.63s1.68,0,1.43-.49A8,8,0,0,0,11.5,5.22c-2.08-1-3.31-.15-4.89-.35a2.3,2.3,0,0,0-1.14,0C5.15,5,4,5.1,3.83,5.37A5.3,5.3,0,0,0,3,7.48c-.12.65.83,1.24,1.3,1.7S6,9.86,6.42,10.6c.3.49.25,1.18.66,1.59a1.25,1.25,0,0,0,1.58,0,3.65,3.65,0,0,0,1-1.42"/><path class="cls-2" d="M7.9,15c.31-1.11.83-2.71,1.1-3.83a.57.57,0,0,0,0-.4c-.12-.23-.47-.19-.68,0s-.41.35-.67.37-.61-.29-.82-.56A23.44,23.44,0,0,0,3.4,7.11C3.28,7,3.12,6.9,3,7a.37.37,0,0,0-.16.17A2.78,2.78,0,0,0,3,9.44a10.69,10.69,0,0,0,1.73,3.32A10.46,10.46,0,0,0,7.9,15"/><path class="cls-3" d="M9.37,13.73A6.87,6.87,0,0,1,10,11.87a8.49,8.49,0,0,1,3.58-3.58c.24-.13.47-.27.74-.43a6.24,6.24,0,0,1,1.71,3.2,3.21,3.21,0,0,1-1.85,3.79A6.34,6.34,0,0,1,9,15,11.39,11.39,0,0,0,9.37,13.73Zm5.44-1a1,1,0,0,0-.89-1,.68.68,0,0,0-.75.64c0,.59.29.88,1,.9A.59.59,0,0,0,14.81,12.72Z"/><path class="cls-4" d="M14,6.65a5.63,5.63,0,0,0,1.77-4.53A1.39,1.39,0,0,0,14.56.78a2.22,2.22,0,0,0-2.14,1.38.47.47,0,0,0,0,.28c.26.77.57,1.54.79,2.32A6,6,0,0,1,13.3,6a.37.37,0,0,0,.09.25C13.56,6.39,13.75,6.5,14,6.65Z"/><path class="cls-4" d="M11.5,5.22c0-.72,0-1.39,0-2.07a1,1,0,0,1,.08-.41,1.37,1.37,0,0,0-.23-1.39A1.84,1.84,0,0,0,10.22.49a.71.71,0,0,0-1,.57,2.78,2.78,0,0,0-.07.83A5.5,5.5,0,0,0,10,4.45a1,1,0,0,0,.57.44C10.88,5,11.19,5.11,11.5,5.22Z"/><path class="cls-4" d="M2.14,9a1.55,1.55,0,0,0-1.4,1.61,1.39,1.39,0,0,0,.74,1.19,3.51,3.51,0,0,0,2,.37A6.93,6.93,0,0,1,2.14,9Z"/><path class="cls-4" d="M3.57,10.9c.21.28.46.66.75,1A.45.45,0,0,0,5,11.8c.12-.34.24-.68.36-1a.35.35,0,0,0-.15-.48c-.36-.23-.7-.49-1.07-.75Z"/><path class="cls-5" d="M14.14,13.35a1.14,1.14,0,0,1-.83-.3.91.91,0,0,1-.21-.68.75.75,0,0,1,.8-.71,1,1,0,0,1,.7.32,1,1,0,0,1,.28.74.66.66,0,0,1-.71.63Z"/><path class="cls-6" d="M13.9,11.74h0a1,1,0,0,1,.89,1,.58.58,0,0,1-.64.56h0c-.68,0-1-.31-1-.9a.68.68,0,0,1,.73-.64m0-.15a.83.83,0,0,0-.88.78,1,1,0,0,0,.23.74,1.2,1.2,0,0,0,.88.32h0a.73.73,0,0,0,.79-.7,1.1,1.1,0,0,0-.3-.79,1.05,1.05,0,0,0-.73-.34h0Z"/><path class="cls-7" d="M12.1,3.18c0,.36,0,.73,0,1.09s.08.49.08.74c0,.53.3.78.82.94a7.87,7.87,0,0,0-.78-2.77Z"/><path class="cls-5" d="M13.36.28a2,2,0,0,1,2.73,1.09,3.63,3.63,0,0,1,0,2.72A6.37,6.37,0,0,1,14.6,6.64c-.29.27-.25.28,0,.58A14.78,14.78,0,0,1,16,9a4.9,4.9,0,0,1,.82,3.34,4.12,4.12,0,0,1-2.48,3.24A7.05,7.05,0,0,1,9.44,16a10.07,10.07,0,0,1-5-2.7,1.22,1.22,0,0,0-1-.43,4.1,4.1,0,0,1-2.67-.8A1.72,1.72,0,0,1,.19,9.84a2.47,2.47,0,0,1,1.7-1.36c.18-.05.23-.14.28-.32.12-.49.29-1,.44-1.45,0-.07.06-.14.09-.21C1.22,5.93.72,5.65.62,5.29a1.58,1.58,0,0,1,.32,0c.25.1.5.21.74.31l1.08.44c.16.06.27,0,.38-.13A5.42,5.42,0,0,1,8.54,4.38l.75.15c-.18-.5-.37-1-.5-1.42A3.71,3.71,0,0,1,8.72.87,1.13,1.13,0,0,1,9.59,0a1.83,1.83,0,0,1,2,.69c.16.22.31.46.49.71A2.91,2.91,0,0,1,13.36.28Zm-1,15.13a6.13,6.13,0,0,0,1.88-.56,3.21,3.21,0,0,0,1.85-3.79,6.24,6.24,0,0,0-1.71-3.2c-.27.16-.5.31-.74.43A8.49,8.49,0,0,0,10,11.87a6.87,6.87,0,0,0-.65,1.85A11.39,11.39,0,0,1,9,15,6.09,6.09,0,0,0,12.32,15.41ZM15.75,2.12A1.39,1.39,0,0,0,14.56.78a2.22,2.22,0,0,0-2.14,1.38.47.47,0,0,0,0,.28c.26.77.57,1.54.79,2.32A6,6,0,0,1,13.3,6a.37.37,0,0,0,.09.25c.17.14.36.25.58.4A5.63,5.63,0,0,0,15.75,2.12Zm-4.24,1a1,1,0,0,1,.08-.41,1.37,1.37,0,0,0-.23-1.39A1.84,1.84,0,0,0,10.22.49a.71.71,0,0,0-1,.57,2.78,2.78,0,0,0-.07.83A5.5,5.5,0,0,0,10,4.45a1,1,0,0,0,.57.44c.31.09.62.21.94.33C11.5,4.5,11.5,3.83,11.51,3.15Zm-1.9,4.1c-.73.46-.7.5-.37,1.27.22.52.41,1.06.62,1.61C11,8.93,12,7.62,13.88,7.43c-.14-.12-.24-.23-.36-.32l-.83-.59c-.17-.11-.31-.23-.55-.09s-.35,0-.43-.3C11,6.51,10.27,6.84,9.61,7.26ZM8,14.64a8,8,0,0,1,1-3.29c-.36-.1-.38-.18-.1-.51L7.37,9.68l-.42.65c.38,0,.71.06,1,.14a.63.63,0,0,1,.4.27c.11.24-.06.46-.35.45A7.86,7.86,0,0,1,6.84,11a.26.26,0,0,0-.36.2c-.06.15-.13.28.08.39a.33.33,0,0,1,.06.58,1.1,1.1,0,0,0-.66,1c0,.05-.05.1-.12.23ZM.75,10.58a1.39,1.39,0,0,0,.74,1.19,3.51,3.51,0,0,0,2,.37A6.93,6.93,0,0,1,2.14,9,1.55,1.55,0,0,0,.75,10.58ZM4.88,8.34c.56.15,1.06.29,1.56.4.06,0,.17-.05.22-.11l1.2-1.39-1.09-1Zm5.24-2.93L10,5.36c-.23-.1-.46-.22-.69-.31s-.33-.14-.42.1a.12.12,0,0,1-.1,0c-.61,0-1,.47-1.49.67l1.1,1a4.4,4.4,0,0,1,2.57-1.21l0-.17Zm-5.8,6.51A.45.45,0,0,0,5,11.8c.12-.34.24-.68.36-1a.35.35,0,0,0-.15-.48c-.36-.23-.7-.49-1.07-.75L3.57,10.9C3.78,11.18,4,11.56,4.32,11.92ZM4,6.18A1.4,1.4,0,0,0,3.81,7.9L5.74,5.81C5.12,5.47,4.66,5.56,4,6.18ZM8.52,8.23l-.83,1c.35.25.68.46,1,.7A1.46,1.46,0,0,1,9.27,11l.32-.44Zm3.58-4c0,.25.08.49.08.74,0,.53.3.78.82.94a7.87,7.87,0,0,0-.78-2.77H12.1C12.1,3.55,12.08,3.91,12.1,4.27ZM4.59,8.86l0,.09a3.34,3.34,0,0,0,1.2.94l.46-.69Zm2.33-3.8V5l-1.07.2C6.33,5.6,6.6,5.19,6.92,5.06Z"/><path class="cls-8" d="M6.8,6.24a9.68,9.68,0,0,1,2.79,4.29L9.27,11a7.23,7.23,0,0,0-2.32-.64,2.24,2.24,0,0,1-.63-.11A4.69,4.69,0,0,1,3.89,8.49C2.77,6.55,4.8,4.64,6.8,6.24Z"/><path class="cls-9" d="M8.93,10.84S6.54,8.76,4.58,8.95,1.89,8.49.94,9.84s.72,3.87,7.81,1.38C8.76,11.22,8.52,10.89,8.93,10.84Z"/><path class="cls-5" d="M9.27,11s-.36-2.35-5.8-2.74c0,0-.21,2,4.55,3,0,0,.82-.06-.05-.72a5.4,5.4,0,0,0-1.31-.12A5.15,5.15,0,0,1,4.27,9c-.07-.22,3.16,0,4.65,1.87Z"/><path class="cls-5" d="M8.93,10.84A10.05,10.05,0,0,0,6.22,9.2C4.71,8.62,4,9.13,4,9.13l.13-.54S8,9,8.93,10.84Z"/><path class="cls-5" d="M9,11.35s-.41,0-.31-.4S9.42,11.09,9,11.35Z"/><path class="cls-5" d="M6.63,12.22S7,12,6.57,11.64,4.82,12,4.82,12a6.48,6.48,0,0,1-2.71,0s-.57.35,2.71.85Z"/></g></g></svg>