<svg xmlns="http://www.w3.org/2000/svg" viewBox="0 0 23.14 16.84"><defs><style>.cls-1{fill:#edd9b0;}.cls-2{fill:#fff;}.cls-3{fill:#8c4a8b;}.cls-4{fill:#553b22;}.cls-5{fill:#c9b893;}.cls-6{fill:#71336f;}.cls-7{fill:#d8ab65;}</style></defs><title>Asset 2</title><g id="Layer_2" data-name="Layer 2"><g id="Bees"><path class="cls-1" d="M21.53,3.32a4.29,4.29,0,0,0-2.63.2,2.45,2.45,0,0,0-1.16.83c-.3.4-.57.82-.84,1.23,0,.06,0,.16,0,.25s.23,0,.29,0a10.14,10.14,0,0,0,.93-.93,2.88,2.88,0,0,1,2.32-1.1,7.51,7.51,0,0,1,.87.11c-.18.24-.29.43-.44.59A5.78,5.78,0,0,1,18.6,6a2.71,2.71,0,0,1-1.32.17c-.17,0-.24.07-.16.22a.4.4,0,0,0,.18.19,2.89,2.89,0,0,0,.8.2,1.78,1.78,0,0,0,.77-.18,7.14,7.14,0,0,0,3-2.25l.1-.11a5.06,5.06,0,0,1,.35.49,1.74,1.74,0,0,1-.68,2.45,4.6,4.6,0,0,1-3.87.29l-.09,0c-.75-.28-.74-.29-.93-1.08a14.69,14.69,0,0,0-.49-1.51,2.42,2.42,0,0,0-.34-.57c-.19-.26-.21-.39,0-.64a13.8,13.8,0,0,1,1.85-2.21A3.59,3.59,0,0,1,19.3.64a2.27,2.27,0,0,1,1.8.36A1.8,1.8,0,0,1,21.53,3.32Z"/><path class="cls-2" d="M16.15,7.67a9.13,9.13,0,0,1,.1,1.19,4.72,4.72,0,0,1-1.49,3.57,3,3,0,0,1-3,.62,7.24,7.24,0,0,1-1.63-.71,4.31,4.31,0,0,1-.83-.83c-.14-.15-.26-.32-.4-.48s-.2-.33,0-.51a10.88,10.88,0,0,1,.82-.91,13,13,0,0,1,1.44-1.17,5.1,5.1,0,0,1,2.21-.78,5.63,5.63,0,0,1,.88-.13C14.86,7.55,15.49,7.62,16.15,7.67Zm-4.36,4.8a.41.41,0,0,0,.18-.64,1.21,1.21,0,0,0-.35-.38.56.56,0,0,0-.45-.08c-.17.1-.4.22-.4.48A.71.71,0,0,0,11.79,12.47Zm3.5-1.64.06,0a.64.64,0,0,0,.22-.8c0-.12-.25-.2-.4-.27s-.41.15-.52.29a.94.94,0,0,0-.14.6C14.53,10.89,15,11,15.29,10.83Z"/><path class="cls-1" d="M7.29,8.47c.12.44.25.87.37,1.3.06.22-.1.25-.28.31,0-.13,0-.25-.05-.31S7.09,9.59,7,9.62a15.08,15.08,0,0,0-1.52.58,2.48,2.48,0,0,0-.58.46,5.77,5.77,0,0,0-1.4,1.75.89.89,0,0,1-.87.56A2,2,0,0,1,.9,12.25a1.57,1.57,0,0,1,0-1.76,3.05,3.05,0,0,1,1-1.09A5.5,5.5,0,0,1,6,8.35L7,8.5A1.35,1.35,0,0,0,7.29,8.47Z"/><path class="cls-3" d="M16,6.69c-.57-.06-1.08-.16-1.6-.17a4.63,4.63,0,0,0-1.2.16c-.44.11-.85.3-1.28.45A5.33,5.33,0,0,0,9.51,8.7a14.92,14.92,0,0,0-1,1.53c-.12-.28-.22-.59-.37-.88a5.58,5.58,0,0,1-.4-1.49.49.49,0,0,1,.12-.47A7.27,7.27,0,0,1,12.28,5a9,9,0,0,1,1.06-.08,5,5,0,0,1,.88,0c.42.05.84.16,1.26.25a.19.19,0,0,1,.12.1c.11.29.22.58.3.88A4.3,4.3,0,0,1,16,6.69Z"/><path class="cls-1" d="M5.3,16a6.37,6.37,0,0,1-.86.23,1.16,1.16,0,0,1-1.33-.86,1.94,1.94,0,0,1,.12-1.54,3.36,3.36,0,0,1,.33-.58.71.71,0,0,1,.36-.19,5.1,5.1,0,0,0,1.43-.77A14,14,0,0,0,6.8,11.19a3.68,3.68,0,0,0,.46-.65.72.72,0,0,1,.22-.22,1.32,1.32,0,0,1,.33-.08,1.88,1.88,0,0,1,0,.28,15.93,15.93,0,0,1-.29,2.32,6.91,6.91,0,0,1-.92,2A4.54,4.54,0,0,1,5.3,16Z"/><path class="cls-3" d="M7.58,7c0-.29,0-.53,0-.77a2.76,2.76,0,0,1,.09-.51,1.83,1.83,0,0,1,.57-1,7.41,7.41,0,0,1,4-1.72c.26,0,.52,0,.78-.05a1.27,1.27,0,0,0,.31-.14c.06,0,.13-.08.19-.06A3.35,3.35,0,0,1,14.81,4c-.52,0-1,.07-1.56.06a7,7,0,0,0-2.68.54A5.93,5.93,0,0,0,7.69,7Z"/><path class="cls-3" d="M12,2.32A6.06,6.06,0,0,0,8.49,3.93l-.23-.18A3.53,3.53,0,0,1,12,2.32Z"/><path class="cls-4" d="M11.51,12.6a.85.85,0,0,1-.6-.25.68.68,0,0,1-.2-.49c0-.29.24-.42.41-.52a.3.3,0,0,1,.16,0,.79.79,0,0,1,.37.11,1.26,1.26,0,0,1,.37.4.48.48,0,0,1,.08.4.52.52,0,0,1-.29.32A.61.61,0,0,1,11.51,12.6Z"/><path class="cls-5" d="M11.29,11.35a.74.74,0,0,1,.34.1,1.21,1.21,0,0,1,.35.38.41.41,0,0,1-.18.64.55.55,0,0,1-.29.07.71.71,0,0,1-.73-.68c0-.26.23-.38.4-.48a.23.23,0,0,1,.11,0m0-.12a.34.34,0,0,0-.17,0c-.19.11-.46.26-.46.58a.73.73,0,0,0,.21.54.91.91,0,0,0,.64.26.67.67,0,0,0,.35-.09.57.57,0,0,0,.31-.36.54.54,0,0,0-.09-.45,1.31,1.31,0,0,0-.39-.41.85.85,0,0,0-.4-.12Z"/><path class="cls-4" d="M15,11c-.28,0-.49-.15-.5-.36A1,1,0,0,1,14.6,10c.13-.19.25-.35.43-.35a.39.39,0,0,1,.16,0c.2.09.38.17.43.3a.7.7,0,0,1-.24.87A.79.79,0,0,1,15,11Z"/><path class="cls-5" d="M15,9.69a.33.33,0,0,1,.14,0c.15.07.35.15.4.27a.64.64,0,0,1-.22.8l-.06,0a.68.68,0,0,1-.34.09c-.23,0-.43-.11-.44-.3a.94.94,0,0,1,.14-.6c.09-.12.19-.33.38-.33m0-.12h0a.54.54,0,0,0-.43.3l-.05.07a1.08,1.08,0,0,0-.16.68A.51.51,0,0,0,15,11a.8.8,0,0,0,.39-.1l.07,0a.76.76,0,0,0,.25-.93c-.06-.16-.26-.25-.42-.32l0,0a.45.45,0,0,0-.19,0Z"/><path class="cls-6" d="M8.87,7.39"/><path class="cls-6" d="M7.75,8.16A.38.38,0,0,1,7.64,8,5.62,5.62,0,0,1,7.62,4a3,3,0,0,1,1-1.47A3.8,3.8,0,0,1,10.22,2q1-.18,2.11-.25c.27,0,.62,0,.65.3a.5.5,0,0,1-.19.38,2.28,2.28,0,0,1-1.13.81A7,7,0,0,0,9.09,5.43,19.79,19.79,0,0,0,8,8s-.14.35-.25.17"/><path class="cls-4" d="M21.53,3.32A1.8,1.8,0,0,0,21.11,1,2.27,2.27,0,0,0,19.3.64a3.59,3.59,0,0,0-1.61.85A13.8,13.8,0,0,0,15.85,3.7c-.19.25-.17.38,0,.64a2.42,2.42,0,0,1,.34.57A14.69,14.69,0,0,1,16.7,6.4c.2.79.18.8.93,1.08l.09,0a4.6,4.6,0,0,0,3.87-.29,1.74,1.74,0,0,0,.68-2.45,5.06,5.06,0,0,0-.35-.49l-.1.11a7.14,7.14,0,0,1-3,2.25,1.78,1.78,0,0,1-.77.18,2.89,2.89,0,0,1-.8-.2.4.4,0,0,1-.18-.19c-.08-.15,0-.24.16-.22A2.71,2.71,0,0,0,18.6,6a5.78,5.78,0,0,0,2.25-1.56c.15-.16.26-.36.44-.59a7.51,7.51,0,0,0-.87-.11,2.88,2.88,0,0,0-2.32,1.1,10.14,10.14,0,0,1-.93.93c-.05,0-.19,0-.29,0s0-.19,0-.25c.27-.42.54-.84.84-1.23a2.45,2.45,0,0,1,1.16-.83A4.29,4.29,0,0,1,21.53,3.32ZM16.15,7.67c-.66,0-1.29-.12-1.92-.13a5.63,5.63,0,0,0-.88.13,5.1,5.1,0,0,0-2.21.78A13,13,0,0,0,9.69,9.61a10.88,10.88,0,0,0-.82.91c-.16.18-.1.35,0,.51s.25.33.4.48a4.31,4.31,0,0,0,.83.83,7.24,7.24,0,0,0,1.63.71,3,3,0,0,0,3-.62,4.72,4.72,0,0,0,1.49-3.57A9.13,9.13,0,0,0,16.15,7.67Zm-8.86.81A1.35,1.35,0,0,1,7,8.5L6,8.35a5.5,5.5,0,0,0-4.11,1,3.05,3.05,0,0,0-1,1.09,1.57,1.57,0,0,0,0,1.76A2,2,0,0,0,2.64,13a.89.89,0,0,0,.87-.56,5.77,5.77,0,0,1,1.4-1.75,2.48,2.48,0,0,1,.58-.46A15.08,15.08,0,0,1,7,9.62c.08,0,.24.08.32.16s0,.18.05.31c.17-.06.34-.09.28-.31C7.54,9.34,7.41,8.91,7.29,8.47ZM16,6.69a4.3,4.3,0,0,0-.08-.56c-.09-.3-.2-.59-.3-.88a.19.19,0,0,0-.12-.1c-.42-.09-.84-.2-1.26-.25a5,5,0,0,0-.88,0A9,9,0,0,0,12.28,5,7.27,7.27,0,0,0,7.86,7.39a.49.49,0,0,0-.12.47,5.58,5.58,0,0,0,.4,1.49c.14.29.25.6.37.88a14.92,14.92,0,0,1,1-1.53,5.33,5.33,0,0,1,2.41-1.57c.43-.15.84-.34,1.28-.45a4.63,4.63,0,0,1,1.2-.16C14.91,6.53,15.43,6.62,16,6.69ZM5.3,16a4.54,4.54,0,0,0,1.31-1.2,6.91,6.91,0,0,0,.92-2,15.93,15.93,0,0,0,.29-2.32,1.88,1.88,0,0,0,0-.28,1.32,1.32,0,0,0-.33.08.72.72,0,0,0-.22.22,3.68,3.68,0,0,1-.46.65,14,14,0,0,1-1.45,1.13,5.1,5.1,0,0,1-1.43.77.71.71,0,0,0-.36.19,3.36,3.36,0,0,0-.33.58,1.94,1.94,0,0,0-.12,1.54,1.16,1.16,0,0,0,1.33.86A6.37,6.37,0,0,0,5.3,16ZM7.58,7,7.69,7A5.93,5.93,0,0,1,10.57,4.6a7,7,0,0,1,2.68-.54c.52,0,1,0,1.56-.06a3.35,3.35,0,0,0-1.34-1.19c-.05,0-.13,0-.19.06A1.27,1.27,0,0,1,13,3c-.26,0-.52,0-.78.05a7.41,7.41,0,0,0-4,1.72,1.83,1.83,0,0,0-.57,1,2.76,2.76,0,0,0-.09.51C7.57,6.51,7.58,6.75,7.58,7Zm-.45,3.18c-1.51.08-2.23,1.23-3,2.33A7.14,7.14,0,0,0,7.13,10.21ZM12,2.32A3.53,3.53,0,0,0,8.26,3.75l.23.18A6.06,6.06,0,0,1,12,2.32ZM7.09,5.94l-.3.2a1.24,1.24,0,0,1-.05-.38A5.16,5.16,0,0,1,9.41,1.95a.41.41,0,0,0,.22-.43c0-.36,0-.71,0-1.07,0-.06.06-.11.09-.16s.13.09.14.14A3.82,3.82,0,0,1,10,1c0,.2,0,.41,0,.64,2.29-.63,4,.22,5.49,2l.14-.24A9,9,0,0,1,17.31,1a3.54,3.54,0,0,1,2.36-1,2.53,2.53,0,0,1,2.64,3.31.58.58,0,0,0,.17.66,2.35,2.35,0,0,1,0,3.31,3.49,3.49,0,0,1-2.65,1.12,8.62,8.62,0,0,1-2.36-.29L17.26,8C17,7.92,17,7.91,17,8.2a7.61,7.61,0,0,1-.5,3,4,4,0,0,1-5,2.49,5.06,5.06,0,0,1-1.39-.59,4.6,4.6,0,0,1-1.66-1.63c-.09-.14-.16-.29-.24-.44H8.11a1.46,1.46,0,0,1,0,.34c-.07.49-.13,1-.23,1.47a5.87,5.87,0,0,1-.24.9,4.79,4.79,0,0,1-1.6,2.34,5.15,5.15,0,0,1-1.1.62,1.94,1.94,0,0,1-2.54-1.88,6.72,6.72,0,0,1,.27-1.18,1.45,1.45,0,0,1,.1-.23,10,10,0,0,1-1-.09A2.08,2.08,0,0,1,.06,11.77a1.79,1.79,0,0,1,.11-1.24A4.21,4.21,0,0,1,1.84,8.69,6.93,6.93,0,0,1,4,7.75a7.07,7.07,0,0,1,2.74.11c.29,0,.4,0,.38-.33C7.14,7,7.11,6.44,7.09,5.94Z"/><path class="cls-7" d="M7.13,10.21a7.14,7.14,0,0,1-3,2.33C4.9,11.44,5.62,10.3,7.13,10.21Z"/></g></g></svg>