<svg xmlns="http://www.w3.org/2000/svg" xmlns:xlink="http://www.w3.org/1999/xlink" viewBox="0 0 18.84 18.17"><defs><style>.cls-1{fill:none;}.cls-2{clip-path:url(#clip-path);}.cls-3{fill:#bb9055;}</style><clipPath id="clip-path" transform="translate(0)"><rect class="cls-1" width="18.84" height="18.17"/></clipPath></defs><title>right-leaf</title><g id="Layer_2" data-name="Layer 2"><g id="Artwork"><g class="cls-2"><path class="cls-3" d="M9.81,1.58A9.62,9.62,0,0,0,7.2,3.85l-.45.54A6.4,6.4,0,0,0,6,5.56c-.1.23-.24.65-.15.72s.59-.33.7-.43c.49-.45,1.12-1,1.69-1.57,1-1,.91-.46.14.52A15.89,15.89,0,0,1,7,6.33c-.14.14-.73.67-.71.8S7,7.06,7.2,7c1.41-.46,3.3-2.2,4-5.3,0-.17.15-.55,0-.67s-1.24.47-1.41.56M8.38,9.8a3.09,3.09,0,0,0,.53,0,35.78,35.78,0,0,1,4.24,0c.93.09.63.27-.13.38-1.73.24-3.18,0-4.25.28-.78.18.43.56.94.66a12,12,0,0,0,6.64-.58c.17-.07,1.44-.68,1.41-.93s-3.14-1-3.83-1.08a12,12,0,0,0-5.42,1c-.09,0-.4.07-.33.22s.16.07.22.08M6.56,13.07A15.17,15.17,0,0,1,8,14.36c.81.77,1.23,1.58-.06.58-.47-.37-.78-.62-1.2-1-.13-.11-.51-.5-.65-.38s.23.72.35.88a7.19,7.19,0,0,0,4,2.87,3.81,3.81,0,0,0,1,.2c.29,0-.85-1.75-1.19-2.14a10.07,10.07,0,0,0-3.31-2.59c-1.28-.64-.72,0-.38.29M12.11,0c.12.15-.08.38-.18.87-.72,3.44-1.74,5.88-5.55,6.91a4.46,4.46,0,0,0-1.44.57,6.85,6.85,0,0,0-1.15,1c-.39.43.14.36.55.37a9.9,9.9,0,0,0,2.45-.25c1.62-.38,3.44-1.42,5.58-1.57A14,14,0,0,1,17.9,9.11a4.65,4.65,0,0,1,.68.28c.17.09.35.17.2.38a1.7,1.7,0,0,1-.5.34,11.35,11.35,0,0,1-1.18.6,10.54,10.54,0,0,1-7.28,1C6.57,11,7.42,10.4,5.36,10.28a9.54,9.54,0,0,0-1,0c-.07,0-.1.11,0,.19a4.28,4.28,0,0,0,.72.68c.53.31,1.09.57,1.63.87.38.21.81.35,1.17.55A10.24,10.24,0,0,1,11.88,17c.31.74.59.9.46,1.09s-1.08,0-1.52-.07a8.51,8.51,0,0,1-4.76-3,38,38,0,0,1-1.78-3.38,3.06,3.06,0,0,0-1.07-1.16,3.94,3.94,0,0,0-1.68,0c-2.18.21-1.79-.83-.33-.65a2.72,2.72,0,0,0,1,0,6.39,6.39,0,0,0,1.43-.92,4.07,4.07,0,0,0,.95-1A6,6,0,0,0,5,6.73c1-2.88,2-4.21,5.36-6C10.71.53,12-.14,12.11,0" transform="translate(0)"/></g></g></g></svg>